<svg id="Layer_2" data-name="Layer 2" xmlns="http://www.w3.org/2000/svg" viewBox="0 0 555.61 209.95"><defs><style>.cls-1{fill:#881c1c;}.cls-2{fill:none;stroke:#fff;stroke-miterlimit:10;stroke-width:6px;}</style></defs><title>icons-logo-new-style</title><path class="cls-1" d="M238.61,266.3v65.37l17,22.45V264.93a52.09,52.09,0,0,1-12.67,1.56C241.48,266.49,240,266.41,238.61,266.3Z" transform="translate(-200.01 -144.2)"/><path class="cls-2" d="M234.57,182.9" transform="translate(-200.01 -144.2)"/><path class="cls-2" d="M251.58,246.58c-2.1-.88-19.08-8.33-24.47-27.67-5.53-19.84,5.83-35.32,7.13-37" transform="translate(-200.01 -144.2)"/><path class="cls-1" d="M270.26,181.36a42.94,42.94,0,1,0,15.63,33.13A42.76,42.76,0,0,0,270.26,181.36ZM242.94,251a36.5,36.5,0,1,1,36.5-36.5A36.5,36.5,0,0,1,242.94,251ZM253,192.41l8.33-2.23A30.33,30.33,0,0,0,243.86,184,48.4,48.4,0,0,1,253,192.41Zm-22.16,28.36a37.84,37.84,0,0,0,4.66,9l7.89-2.11-2.56-9.57Zm8.91,14.08a43,43,0,0,0,7.13,5.8l-1.93-7.2Zm-6.6-45.43a44.16,44.16,0,0,0-3.4,9.22l5.47-1.47Zm6.13,22.88-2.5-9.33-8.07,2.16a37.54,37.54,0,0,0,.55,9.85Zm-16.69-5.52-9.72,2.6a30.21,30.21,0,0,0,0,10l10.62-2.85A43.68,43.68,0,0,1,222.6,206.77ZM255.14,208a37.53,37.53,0,0,0-4.51-8.79l-8.05,2.16,2.5,9.33Zm-8.68-13.88A44.16,44.16,0,0,0,239,188l2,7.62Zm-13.22,42.43-8.57,2.3A30.33,30.33,0,0,0,242.6,245,48.63,48.63,0,0,1,233.24,236.59ZM225,222.33l-10.66,2.86a30.51,30.51,0,0,0,5.18,8.87l9.84-2.64A43.66,43.66,0,0,1,225,222.33Zm1.83-33.74a30.68,30.68,0,0,0-12,14l8.38-2.24A48.29,48.29,0,0,1,226.87,188.59Zm25.88,50.76a42.93,42.93,0,0,0,3.37-8.88l-5.36,1.44Zm6.09,1.16a30.69,30.69,0,0,0,12.14-14l-8.37,2.24A48.52,48.52,0,0,1,258.84,240.51Zm-12.2-24,2.56,9.57,8-2.15a37.85,37.85,0,0,0-.52-10.11ZM273,209.47l-10.52,2.82a43.68,43.68,0,0,1,.81,10l9.67-2.59A30.13,30.13,0,0,0,273,209.47Zm-12.07-3,10.51-2.82a30.51,30.51,0,0,0-5-8.64l-9.64,2.58A43.63,43.63,0,0,1,260.95,206.49Z" transform="translate(-200.01 -144.2)"/><g id="iCAN_iCons_Alumni_Network" data-name="iCAN iCons Alumni Network"><path d="M435,195.75c-5-6-12.72-13.25-20.88-17.86a58.9,58.9,0,0,0-27.6-7.49c-37,0-64.32,35.71-64.32,80.06,0,52.13,35.28,78.33,64.56,78.33,10.8,0,21.36-3.74,29.76-8.93A75.5,75.5,0,0,0,435,303.75v26.5C417.22,345.5,398.74,349,386.74,349c-47.52,0-82.8-43.2-82.8-98.78,0-57.31,35.76-99.93,83.76-99.93,9.6,0,28.08,1.44,47.28,19v26.5Z" transform="translate(-200.01 -144.2)"/><path d="M554,291.36H485.85l-19.2,54.14H447L520.66,144.2,592.42,345.5H572.74Zm-7-20.16-26.88-76.89L492.81,271.2h54.24Z" transform="translate(-200.01 -144.2)"/><path d="M613.05,345.5V145.35l124.8,157V153.41h17.76V354.14l-124.8-157V345.5H613.05Z" transform="translate(-200.01 -144.2)"/></g></svg>